<svg xmlns="http://www.w3.org/2000/svg" xmlns:xlink="http://www.w3.org/1999/xlink" width="48" zoomAndPan="magnify" viewBox="0 0 36 36.000001" height="48" preserveAspectRatio="xMidYMid meet" version="1.0"><path fill="#ffffff" d="M 21.136719 32.109375 L 21.136719 29.917969 L 28.945312 29.917969 L 28.945312 14.230469 L 7.054688 14.230469 L 7.054688 22.257812 L 4.863281 22.257812 L 4.863281 7.296875 C 4.863281 6.714844 5.082031 6.203125 5.523438 5.765625 C 5.960938 5.328125 6.46875 5.109375 7.054688 5.109375 L 9.425781 5.109375 L 9.425781 2.917969 L 11.796875 2.917969 L 11.796875 5.109375 L 24.203125 5.109375 L 24.203125 2.917969 L 26.574219 2.917969 L 26.574219 5.109375 L 28.945312 5.109375 C 29.53125 5.109375 30.039062 5.328125 30.476562 5.765625 C 30.917969 6.203125 31.136719 6.714844 31.136719 7.296875 L 31.136719 29.917969 C 31.136719 30.503906 30.917969 31.011719 30.476562 31.453125 C 30.039062 31.890625 29.53125 32.109375 28.945312 32.109375 Z M 12.164062 34.515625 L 10.628906 32.984375 L 14.753906 28.824219 L 2.3125 28.824219 L 2.3125 26.636719 L 14.753906 26.636719 L 10.628906 22.476562 L 12.164062 20.941406 L 18.949219 27.730469 Z M 7.054688 12.039062 L 28.945312 12.039062 L 28.945312 7.296875 L 7.054688 7.296875 Z M 7.054688 12.039062 L 7.054688 7.296875 Z M 7.054688 12.039062 " fill-opacity="1" fill-rule="nonzero"/></svg>